<?xml version="1.0" encoding="UTF-8" standalone="no"?>
<svg
   xmlns:dc="http://purl.org/dc/elements/1.1/"
   xmlns:cc="http://creativecommons.org/ns#"
   xmlns:rdf="http://www.w3.org/1999/02/22-rdf-syntax-ns#"
   xmlns:svg="http://www.w3.org/2000/svg"
   xmlns="http://www.w3.org/2000/svg"
   version="1.1"
   id="svg2"
   viewBox="0 0 1295.8781 400.00001"
   height="112.88889mm"
   width="365.72559mm">
  <defs
     id="defs4" />
  <metadata
     id="metadata7">
    <rdf:RDF>
      <cc:Work
         rdf:about="">
        <dc:format>image/svg+xml</dc:format>
        <dc:type
           rdf:resource="http://purl.org/dc/dcmitype/StillImage" />
        <dc:title></dc:title>
      </cc:Work>
    </rdf:RDF>
  </metadata>
  <g
     transform="translate(149.24712,-247.68734)"
     id="layer1">
    <path
       id="path3360"
       d="m -13.164806,639.30179 c -15.118197,-15.11829 -4.47788,-23.24624 30.701504,-23.45225 73.058751,-0.42775 159.358592,-58.42973 188.092172,-126.41635 7.44803,-17.62272 13.54192,-52.34853 13.54192,-77.1686 0,-44.71102 12.18086,-59.72868 23.8278,-29.37718 3.32418,8.66263 6.0439,31.18152 6.0439,50.04189 l 0,34.29168 30.59856,-15.82306 c 55.52339,-28.7123 118.76004,4.47933 118.76004,62.33478 0,20.57493 -4.61616,22.67756 -49.7862,22.67756 -43.67617,0 -49.7862,2.52438 -49.7862,20.56915 0,29.25571 18.00606,59.08879 35.66383,59.08879 8.27676,0 22.68156,-13.41391 32.01069,-29.80881 9.32913,-16.39477 20.32254,-29.83706 24.42999,-29.87171 14.86284,-0.12494 7.00078,37.67423 -13.16935,63.31634 -43.18293,54.89842 -129.59278,24.36785 -144.69097,-51.1227 l -6.31872,-31.59359 -21.21689,31.33066 c -30.55856,45.12539 -97.76197,77.62152 -160.5247,77.62152 -28.346619,0 -54.5263718,-2.98717 -58.177376,-6.63812 z M 331.47904,486.21693 c -6.10123,-23.33114 -26.11215,-20.9204 -30.89112,3.72156 -2.13127,10.98935 3.44325,16.60007 16.49299,16.60007 14.94178,0 18.42623,-4.91802 14.39813,-20.32163 z m 56.96486,151.7572 c 0,-4.38116 4.98993,-12.95582 11.08889,-19.05475 6.92318,-6.92312 9.66143,-39.36073 7.28881,-86.34423 -3.75608,-74.38005 -3.49632,-75.32199 22.3306,-80.99458 14.37199,-3.15661 30.13532,-4.63691 35.0295,-3.28957 4.89432,1.34733 19.19991,-1.05004 31.79001,-5.32742 15.2494,-5.1809 30.85125,-2.56172 46.73498,7.84573 22.79384,14.93508 25.46409,14.0946 60.64867,-19.08876 43.54483,-41.06794 57.99749,-43.82357 51.49689,-9.81852 -3.19082,16.69238 -0.29296,24.89306 8.79655,24.89306 7.45522,0 13.55499,6.72115 13.55499,14.93587 0,8.21474 -5.60092,14.92646 -12.44649,14.91501 -14.69215,-0.024 -11.75268,128.34929 3.29497,143.90299 16.85223,17.41902 9.40901,25.39095 -23.70725,25.39095 -48.20979,0 -56.75632,-14.54409 -56.75632,-96.58524 0,-47.56036 -3.90462,-72.68782 -11.29517,-72.68782 -12.11966,0 -7.2,118.9898 6.27818,151.84789 6.17243,15.04795 1.1329,17.42517 -36.94022,17.42517 l -44.08807,0 4.44228,-84.63653 c 3.9509,-75.27173 2.5385,-84.63653 -12.76398,-84.63653 -15.22941,0 -16.80289,9.72417 -13.69513,84.63797 l 3.51112,84.63797 -47.2969,-10e-4 c -26.01334,-8e-4 -47.29691,-3.58603 -47.29691,-7.96721 z m 305.05353,-18.28509 c -52.92276,-52.92288 -26.50725,-162.5074 42.84449,-177.73958 33.90753,-7.44731 90.22055,17.48928 90.22055,39.95169 0,21.02167 9.31001,18.18853 31.04935,-9.44846 26.47058,-33.65199 70.44211,-41.48904 108.07038,-19.26145 16.58434,9.79665 30.60003,24.68727 31.14595,33.09041 0.54565,8.40301 4.09305,4.0764 7.88255,-9.6148 6.3597,-22.97686 12.032,-25.11976 73.6867,-27.83735 42.6649,-1.88057 66.7967,0.90722 66.7967,7.71646 0,5.86347 -15.9701,42.37337 -35.4894,81.13337 -19.5191,38.75994 -32.9148,73.04723 -29.7678,76.19415 3.1468,3.14679 19.4403,-7.39409 36.2077,-23.42431 l 30.4863,-29.14579 -3.2076,39.82895 -3.2078,39.82898 -77.1686,2.90814 c -42.4428,1.59944 -77.16856,0.98513 -77.16856,-1.36526 0,-2.35039 20.52986,-42.86578 45.62206,-90.03401 48.1029,-90.42415 46.4827,-108.92798 -4.4576,-50.91027 -27.51533,31.3384 -35.75543,34.85035 -81.76875,34.85035 -50.81083,0 -51.12272,0.192 -44.45651,27.38242 14.20358,57.93386 55.95984,67.77665 75.00654,17.68031 9.45127,-24.85898 29.96872,-34.9206 29.96872,-14.69649 0,19.77804 -29.15972,66.80233 -45.25374,72.97814 -39.07494,14.99451 -75.55698,5.96501 -104.6662,-25.90555 -21.15076,-23.15704 -29.31039,-27.47218 -29.31039,-15.50049 0,23.33383 -38.50164,47.59131 -75.53706,47.59131 -20.51723,0 -40.30773,-9.03074 -57.52798,-26.25087 z M 804.6218,586.25939 c 9.32912,-16.39477 20.32257,-29.83706 24.42997,-29.87171 4.10725,-0.032 7.46797,-4.54367 7.46797,-10.02017 0,-5.47648 -25.12998,-9.95725 -55.84426,-9.95725 l -55.84436,0 6.85863,27.32673 c 14.81071,59.01052 46.58564,68.82301 72.93205,22.5224 z M 766.819,486.62408 c 0,-10.95299 -6.19857,-19.91447 -13.77447,-19.91447 -7.57604,0 -16.11816,8.96148 -18.98242,19.91447 -3.86276,14.7715 -0.30496,19.91448 13.7746,19.91448 12.34421,0 18.98229,-6.96419 18.98229,-19.91448 z m 169.27314,0 c 0,-10.95299 -6.19858,-19.91447 -13.77461,-19.91447 -7.57603,0 -16.11789,8.96148 -18.98229,19.91447 -3.86275,14.7715 -0.30576,19.91448 13.77448,19.91448 12.3442,0 18.98242,-6.96419 18.98242,-19.91448 z M -85.751252,598.29596 c -6.150835,-3.91647 -22.953718,-24.54896 -37.339588,-45.84997 -22.23765,-32.92694 -26.15628,-49.48546 -26.15628,-110.52507 0,-64.13046 3.2215,-76.24282 30.17279,-113.44819 45.338193,-62.58737 81.777827,-80.7411 162.158722,-80.78524 70.311298,-0.0399 95.667778,8.06911 133.768098,42.77177 42.9825,39.14949 25.66383,171.73613 -29.13816,223.07198 -31.64719,29.64568 -89.615884,52.75077 -132.347166,52.75077 l -35.170183,0 0,-100.96547 0,-100.96546 55.792356,5.75828 c 57.122745,5.8956 88.932083,24.77013 104.067613,61.7499 6.65649,16.26333 8.2665,13.84089 8.78202,-13.21249 0.45484,-23.86846 -7.5035,-41.26165 -28.47464,-62.23271 C 93.01594,329.06565 86.419063,327.30822 11.108104,327.30822 l -80.150474,0 -2.762655,139.05432 c -1.98485,99.89748 -5.912013,137.04912 -13.946227,131.93342 z M 1045.6217,389.0431 c 0,-9.85764 -5.3769,-23.29994 -11.9487,-29.87171 -9.2932,-9.29343 -2.8397,-11.9487 29.042,-11.9487 23.4758,0 43.1366,5.31829 46.013,12.44658 4.0178,9.95724 5.1794,9.95724 5.8082,0 0.4326,-6.84565 7.5074,-12.44658 15.722,-12.44658 9.7678,0 14.9359,9.77801 14.9359,28.25833 0,25.40756 -3.5158,28.39058 -34.8503,29.56855 -29.3869,1.1048 -35.0629,-2.15448 -36.2064,-20.79039 l -1.3558,-22.10062 -4.3152,22.40382 c -5.1344,26.65661 -22.8447,30.13037 -22.8447,4.48072 z"
       style="fill:#ffffff" />
  </g>
</svg>
